REM DIRINDEX 1\2\4\18,1\2\4\19,1\2\5\20,1\2\5\21,1\2\6\22,1\2\7\23,1\2\8\24,1\2\8\25,1\2\9\26,1\2\10\27,1\3\11\28,1\3\11\29,1\3\11\30,1\3\11\31,1\3\12\32,1\3\12\33,1\3\12\34,1\3\12\35,1\3\13\36,1\3\13\37,1\3\14\38,1\3\14\39,1\3\15\40,1\3\15\41,1\3\15\42,1\3\16\43,1\3\16\44,1\3\17\45,1\3\17\46
REM DIRNAME folder01,folder02,folder03,folder04,folder05,folder06,folder07,folder08,folder09,folder10,folder11,folder12,folder13,folder14,folder15,folder16,folder17,folder18,folder19,folder20,folder21,folder22,folder23,folder24,folder25,folder26,folder27,folder28,folder29,folder30,folder31,folder32,folder33,folder34,folder35,folder36,folder37,folder38,folder39,folder40,folder41,folder42,folder43,folder44,folder45,folder46
TITLE ""
FILE "11.mp3" MP3
  TRACK 01 AUDIO
    TITLE "0:"
    INDEX 01 00:00:00
  TRACK 02 AUDIO
    TITLE "23:cjc023_1727"
    INDEX 01 00:00:13
  TRACK 03 AUDIO
    TITLE "0:"
    INDEX 01 00:01:34
  TRACK 04 AUDIO
    TITLE "23:cjc023_1728"
    INDEX 01 00:02:08
  TRACK 05 AUDIO
    TITLE "0:"
    INDEX 01 00:03:33
  TRACK 06 AUDIO
    TITLE "23:cjc023_1729"
    INDEX 01 00:04:07
  TRACK 07 AUDIO
    TITLE "0:"
    INDEX 01 00:05:30
  TRACK 08 AUDIO
    TITLE "23:cjc023_1730"
    INDEX 01 00:06:02
  TRACK 09 AUDIO
    TITLE "0:"
    INDEX 01 00:07:39
  TRACK 10 AUDIO
    TITLE "23:cjc023_1731"
    INDEX 01 00:08:11
  TRACK 11 AUDIO
    TITLE "0:"
    INDEX 01 00:09:69
  TRACK 12 AUDIO
    TITLE "23:cjc023_1732"
    INDEX 01 00:10:41
  TRACK 13 AUDIO
    TITLE "0:"
    INDEX 01 00:11:54
  TRACK 14 AUDIO
    TITLE "23:cjc023_1733"
    INDEX 01 00:12:24
  TRACK 15 AUDIO
    TITLE "0:"
    INDEX 01 00:13:51
  TRACK 16 AUDIO
    TITLE "23:cjc023_1734"
    INDEX 01 00:14:25
  TRACK 17 AUDIO
    TITLE "0:"
    INDEX 01 00:15:66
  TRACK 18 AUDIO
    TITLE "23:cjc023_1735"
    INDEX 01 00:16:44
  TRACK 19 AUDIO
    TITLE "0:"
    INDEX 01 00:18:09
  TRACK 20 AUDIO
    TITLE "23:cjc023_1736"
    INDEX 01 00:18:54
  TRACK 21 AUDIO
    TITLE "0:"
    INDEX 01 00:20:18
  TRACK 22 AUDIO
    TITLE "23:cjc023_1737"
    INDEX 01 00:20:65
  TRACK 23 AUDIO
    TITLE "0:"
    INDEX 01 00:22:34
  TRACK 24 AUDIO
    TITLE "23:cjc023_1738"
    INDEX 01 00:23:04
  TRACK 25 AUDIO
    TITLE "0:"
    INDEX 01 00:24:37
  TRACK 26 AUDIO
    TITLE "23:cjc023_1739"
    INDEX 01 00:25:07
  TRACK 27 AUDIO
    TITLE "0:"
    INDEX 01 00:26:36
  TRACK 28 AUDIO
    TITLE "23:cjc023_1740"
    INDEX 01 00:27:06
  TRACK 29 AUDIO
    TITLE "0:"
    INDEX 01 00:28:00
  TRACK 30 AUDIO
    TITLE "23:cjc023_1741"
    INDEX 01 00:28:51
  TRACK 31 AUDIO
    TITLE "0:"
    INDEX 01 00:30:06
  TRACK 32 AUDIO
    TITLE "23:cjc023_1742"
    INDEX 01 00:30:54
  TRACK 33 AUDIO
    TITLE "0:"
    INDEX 01 00:31:61
  TRACK 34 AUDIO
    TITLE "23:cjc023_1743"
    INDEX 01 00:32:31
  TRACK 35 AUDIO
    TITLE "0:"
    INDEX 01 00:33:48
  TRACK 36 AUDIO
    TITLE "23:cjc023_1744"
    INDEX 01 00:34:18
  TRACK 37 AUDIO
    TITLE "0:"
    INDEX 01 00:35:31
  TRACK 38 AUDIO
    TITLE "23:cjc023_1745"
    INDEX 01 00:36:03
  TRACK 39 AUDIO
    TITLE "0:"
    INDEX 01 00:37:22
  TRACK 40 AUDIO
    TITLE "23:cjc023_1746"
    INDEX 01 00:37:67
  TRACK 41 AUDIO
    TITLE "0:"
    INDEX 01 00:39:21
  TRACK 42 AUDIO
    TITLE "23:cjc023_1747"
    INDEX 01 00:39:64
  TRACK 43 AUDIO
    TITLE "0:"
    INDEX 01 00:41:06
  TRACK 44 AUDIO
    TITLE "23:cjc023_1748"
    INDEX 01 00:41:57
  TRACK 45 AUDIO
    TITLE "0:"
    INDEX 01 00:42:66
  TRACK 46 AUDIO
    TITLE "23:cjc023_1749"
    INDEX 01 00:43:39
  TRACK 47 AUDIO
    TITLE "0:"
    INDEX 01 00:44:65
  TRACK 48 AUDIO
    TITLE "23:cjc023_1750"
    INDEX 01 00:45:37
  TRACK 49 AUDIO
    TITLE "0:"
    INDEX 01 00:46:60
  TRACK 50 AUDIO
    TITLE "23:cjc023_1751"
    INDEX 01 00:47:30
  TRACK 51 AUDIO
    TITLE "0:"
    INDEX 01 00:48:63
  TRACK 52 AUDIO
    TITLE "23:cjc023_1752"
    INDEX 01 00:49:35
  TRACK 53 AUDIO
    TITLE "0:"
    INDEX 01 00:50:66
  TRACK 54 AUDIO
    TITLE "23:cjc023_1753"
    INDEX 01 00:51:38
  TRACK 55 AUDIO
    TITLE "0:"
    INDEX 01 00:52:63
  TRACK 56 AUDIO
    TITLE "23:cjc023_1754"
    INDEX 01 00:53:35
  TRACK 57 AUDIO
    TITLE "0:"
    INDEX 01 00:54:60
  TRACK 58 AUDIO
    TITLE "23:cjc023_1755"
    INDEX 01 00:55:32
  TRACK 59 AUDIO
    TITLE "0:"
    INDEX 01 00:57:01
  TRACK 60 AUDIO
    TITLE "23:cjc023_1756"
    INDEX 01 00:57:48
  TRACK 61 AUDIO
    TITLE "0:"
    INDEX 01 00:59:24
  TRACK 62 AUDIO
    TITLE "23:cjc023_1757"
    INDEX 01 00:59:71
  TRACK 63 AUDIO
    TITLE "0:"
    INDEX 01 01:01:40
  TRACK 64 AUDIO
    TITLE "23:cjc023_1758"
    INDEX 01 01:02:10
  TRACK 65 AUDIO
    TITLE "0:"
    INDEX 01 01:03:29
  TRACK 66 AUDIO
    TITLE "23:cjc023_1759"
    INDEX 01 01:04:01
  TRACK 67 AUDIO
    TITLE "0:"
    INDEX 01 01:05:09
  TRACK 68 AUDIO
    TITLE "23:cjc023_1760"
    INDEX 01 01:05:58
  TRACK 69 AUDIO
    TITLE "0:"
    INDEX 01 01:07:21
  TRACK 70 AUDIO
    TITLE "23:cjc023_1761"
    INDEX 01 01:07:68
  TRACK 71 AUDIO
    TITLE "0:"
    INDEX 01 01:09:12
  TRACK 72 AUDIO
    TITLE "23:cjc023_1762"
    INDEX 01 01:09:61
  TRACK 73 AUDIO
    TITLE "0:"
    INDEX 01 01:11:03
  TRACK 74 AUDIO
    TITLE "23:cjc023_1763"
    INDEX 01 01:11:51
  TRACK 75 AUDIO
    TITLE "0:"
    INDEX 01 01:13:04
  TRACK 76 AUDIO
    TITLE "23:cjc023_1764"
    INDEX 01 01:13:53
  TRACK 77 AUDIO
    TITLE "0:"
    INDEX 01 01:14:72
  TRACK 78 AUDIO
    TITLE "23:cjc023_1765"
    INDEX 01 01:15:42
  TRACK 79 AUDIO
    TITLE "0:"
    INDEX 01 01:16:54
  TRACK 80 AUDIO
    TITLE "23:cjc023_1766"
    INDEX 01 01:17:26
  TRACK 81 AUDIO
    TITLE "0:"
    INDEX 01 01:18:43
